<?xml version="1.0" encoding="UTF-8" standalone="no"?>
<svg
   xmlns:dc="http://purl.org/dc/elements/1.1/"
   xmlns:cc="http://creativecommons.org/ns#"
   xmlns:rdf="http://www.w3.org/1999/02/22-rdf-syntax-ns#"
   xmlns:svg="http://www.w3.org/2000/svg"
   xmlns="http://www.w3.org/2000/svg"
   xmlns:sodipodi="http://sodipodi.sourceforge.net/DTD/sodipodi-0.dtd"
   xmlns:inkscape="http://www.inkscape.org/namespaces/inkscape"
   version="1.1"
   id="Capa_1"
   x="0px"
   y="0px"
   width="200"
   height="200"
   viewBox="0 0 200 200"
   xml:space="preserve"
   sodipodi:docname="left-arrow.svg"
   inkscape:version="1.0.2 (e86c870879, 2021-01-15)"><metadata
   id="metadata41"><rdf:RDF><cc:Work
       rdf:about=""><dc:format>image/svg+xml</dc:format><dc:type
         rdf:resource="http://purl.org/dc/dcmitype/StillImage" /><dc:title></dc:title></cc:Work></rdf:RDF></metadata><defs
   id="defs39">
	
</defs><sodipodi:namedview
   pagecolor="#ffffff"
   bordercolor="#666666"
   borderopacity="1"
   objecttolerance="10"
   gridtolerance="10"
   guidetolerance="10"
   inkscape:pageopacity="0"
   inkscape:pageshadow="2"
   inkscape:window-width="2210"
   inkscape:window-height="1855"
   id="namedview37"
   showgrid="false"
   inkscape:zoom="3.15"
   inkscape:cx="71.536299"
   inkscape:cy="54.59749"
   inkscape:window-x="4720"
   inkscape:window-y="133"
   inkscape:window-maximized="0"
   inkscape:current-layer="Capa_1"
   inkscape:document-rotation="0"
   fit-margin-top="0"
   fit-margin-left="0"
   fit-margin-right="0"
   fit-margin-bottom="0" />
<path
   d="m 36,100 c 0,35.2864 28.7136,64 64,64 35.2864,0 64,-28.7136 64,-64 C 164,64.7136 135.2864,36 100,36 64.7136,36 36,64.7136 36,100 Z M 99.2064,74.3424 c 1.6992,1.4432 2.576,3.5008 2.576,5.5616 0,1.6672 -0.5728,3.3504 -1.7376,4.7264 l -6.8512,8.0672 h 29.3952 c 4.032,0 7.296,3.2672 7.296,7.2992 0,4.032 -3.2672,7.2992 -7.296,7.2992 H 93.1936 l 6.8512,8.0672 c 2.6112,3.072 2.2336,7.68 -0.8384,10.2912 -3.0752,2.6112 -7.68,2.2336 -10.2912,-0.8384 L 71.8496,104.7232 c -2.3136,-2.7264 -2.3136,-6.7264 0,-9.456 L 88.9152,75.1776 c 2.6112,-3.0688 7.216,-3.4464 10.2912,-0.8352 z"
   id="path2"
   style="fill:#2a7fff;stroke-width:3.2" />
<g
   id="g6"
   transform="rotate(90,0,44)">
</g>
<g
   id="g8"
   transform="rotate(90,0,44)">
</g>
<g
   id="g10"
   transform="rotate(90,0,44)">
</g>
<g
   id="g12"
   transform="rotate(90,0,44)">
</g>
<g
   id="g14"
   transform="rotate(90,0,44)">
</g>
<g
   id="g16"
   transform="rotate(90,0,44)">
</g>
<g
   id="g18"
   transform="rotate(90,0,44)">
</g>
<g
   id="g20"
   transform="rotate(90,0,44)">
</g>
<g
   id="g22"
   transform="rotate(90,0,44)">
</g>
<g
   id="g24"
   transform="rotate(90,0,44)">
</g>
<g
   id="g26"
   transform="rotate(90,0,44)">
</g>
<g
   id="g28"
   transform="rotate(90,0,44)">
</g>
<g
   id="g30"
   transform="rotate(90,0,44)">
</g>
<g
   id="g32"
   transform="rotate(90,0,44)">
</g>
<g
   id="g34"
   transform="rotate(90,0,44)">
</g>
</svg>
