<?xml version="1.0" encoding="UTF-8" standalone="no"?>
<svg
   xmlns:dc="http://purl.org/dc/elements/1.1/"
   xmlns:cc="http://creativecommons.org/ns#"
   xmlns:rdf="http://www.w3.org/1999/02/22-rdf-syntax-ns#"
   xmlns:svg="http://www.w3.org/2000/svg"
   xmlns="http://www.w3.org/2000/svg"
   xmlns:xlink="http://www.w3.org/1999/xlink"
   xmlns:sodipodi="http://sodipodi.sourceforge.net/DTD/sodipodi-0.dtd"
   xmlns:inkscape="http://www.inkscape.org/namespaces/inkscape"
   id="Layer_1"
   data-name="Layer 1"
   viewBox="0 0 148.95 148.95"
   version="1.1"
   sodipodi:docname="obs.svg"
   inkscape:version="1.0.2 (e86c870879, 2021-01-15)"
   width="148.95"
   height="148.95">
  <metadata
     id="metadata65">
    <rdf:RDF>
      <cc:Work
         rdf:about="">
        <dc:format>image/svg+xml</dc:format>
        <dc:type
           rdf:resource="http://purl.org/dc/dcmitype/StillImage" />
        <dc:title>OBS-Alt-2</dc:title>
      </cc:Work>
    </rdf:RDF>
  </metadata>
  <sodipodi:namedview
     pagecolor="#ffffff"
     bordercolor="#666666"
     borderopacity="1"
     objecttolerance="10"
     gridtolerance="10"
     guidetolerance="10"
     inkscape:pageopacity="0"
     inkscape:pageshadow="2"
     inkscape:window-width="2043"
     inkscape:window-height="1495"
     id="namedview63"
     showgrid="false"
     inkscape:zoom="1.0151057"
     inkscape:cx="74.475"
     inkscape:cy="74.475"
     inkscape:window-x="5054"
     inkscape:window-y="511"
     inkscape:window-maximized="0"
     inkscape:current-layer="Layer_1"
     fit-margin-top="0"
     fit-margin-left="0"
     fit-margin-right="0"
     fit-margin-bottom="0" />
  <defs
     id="defs43">
    <style
       id="style2">.cls-1{fill:url(#radial-gradient);}.cls-2{fill:none;}.cls-3{fill:url(#radial-gradient-2);}.cls-4{fill:url(#radial-gradient-3);}.cls-5{clip-path:url(#clip-path);}.cls-6{fill:url(#radial-gradient-5);}.cls-7{clip-path:url(#clip-path-2);}.cls-8{fill:url(#radial-gradient-6);}.cls-9{fill:url(#radial-gradient-7);}</style>
    <radialGradient
       id="radial-gradient"
       cx="512.06146"
       cy="512.12115"
       r="444.12234"
       gradientUnits="userSpaceOnUse">
      <stop
         offset="0.99"
         stop-opacity="0.5"
         id="stop4" />
      <stop
         offset="1"
         stop-opacity="0"
         id="stop6" />
    </radialGradient>
    <radialGradient
       id="radial-gradient-2"
       cx="514.5"
       cy="516.5"
       r="496.5"
       gradientUnits="userSpaceOnUse">
      <stop
         offset="0.91341"
         id="stop9" />
      <stop
         offset="1"
         stop-opacity="0"
         id="stop11" />
    </radialGradient>
    <radialGradient
       id="radial-gradient-3"
       cx="512.05908"
       cy="512.12122"
       r="486.27267"
       gradientUnits="userSpaceOnUse">
      <stop
         offset="0.99"
         stop-color="#fff"
         id="stop14" />
      <stop
         offset="0.99505"
         stop-color="#fdfdfd"
         id="stop16" />
      <stop
         offset="0.99687"
         stop-color="#f6f6f6"
         id="stop18" />
      <stop
         offset="0.99817"
         stop-color="#ebebeb"
         id="stop20" />
      <stop
         offset="0.99921"
         stop-color="#dadada"
         id="stop22" />
      <stop
         offset="1"
         stop-color="#c7c7c7"
         id="stop24" />
    </radialGradient>
    <clipPath
       id="clip-path"
       transform="translate(-18 -20)">
      <path
         id="SVGID"
         class="cls-1"
         d="m 67.93793,512.1212 c 0,245.28622 198.83963,444.12116 444.12116,444.12116 245.28153,0 444.12591,-198.83494 444.12591,-444.12116 C 956.185,266.83966 757.34063,68 512.05909,68 266.77755,68 67.93793,266.83966 67.93793,512.1212" />
    </clipPath>
    <radialGradient
       id="radial-gradient-5"
       cx="494.0614"
       cy="492.12119"
       r="444.12238"
       xlink:href="#radial-gradient" />
    <clipPath
       id="clip-path-2"
       transform="translate(-18 -20)">
      <path
         class="cls-2"
         d="m 71.60309,512.1212 c 0,243.262 197.19869,440.456 440.456,440.456 243.25731,0 440.46067,-197.194 440.46067,-440.456 0,-243.25733 -197.20334,-440.45606 -440.46067,-440.45606 -243.25733,0 -440.456,197.19873 -440.456,440.45606"
         id="path30" />
    </clipPath>
    <radialGradient
       id="radial-gradient-6"
       cx="5.2952199"
       cy="1029.3145"
       r="4.6533298"
       gradientTransform="matrix(94.65428,0,0,-94.65428,-7.15418,97921.139)"
       gradientUnits="userSpaceOnUse">
      <stop
         offset="0"
         id="stop33" />
      <stop
         offset="1"
         stop-color="#322f32"
         id="stop35" />
    </radialGradient>
    <radialGradient
       id="radial-gradient-7"
       cx="578.89026"
       cy="473.31943"
       r="353.94183"
       gradientTransform="matrix(1,0,0,1.09706,0,-45.94173)"
       gradientUnits="userSpaceOnUse">
      <stop
         offset="0"
         stop-color="#c2c0c2"
         id="stop38" />
      <stop
         offset="1"
         stop-color="#ebebeb"
         id="stop40" />
    </radialGradient>
    <radialGradient
       inkscape:collect="always"
       xlink:href="#radial-gradient"
       id="radialGradient902"
       gradientUnits="userSpaceOnUse"
       cx="512.06146"
       cy="512.12115"
       r="444.12234" />
  </defs>
  <title
     id="title45">OBS-Alt-2</title>
  <g
     id="g898"
     transform="scale(0.15)">
    <path
       class="cls-3"
       d="M 514.5,20 C 788.71048,20 1011,242.28952 1011,516.5 1011,790.71048 788.71048,1013 514.5,1013 240.28952,1013 18,790.71056 18,516.5 18,242.28944 240.28946,20 514.5,20"
       transform="translate(-18,-20)"
       shape-rendering="geometricPrecision"
       id="path47"
       style="fill:url(#radial-gradient-2)" />
    <path
       class="cls-4"
       d="m 512.05911,25.84852 c 268.56207,0 486.27268,217.71061 486.27268,486.27268 0,268.56207 -217.71061,486.27268 -486.27268,486.27268 -268.56207,0 -486.27268,-217.71054 -486.27268,-486.27268 0,-268.56214 217.71057,-486.27268 486.27268,-486.27268"
       transform="translate(-18,-20)"
       shape-rendering="geometricPrecision"
       id="path49"
       style="fill:url(#radial-gradient-3)" />
    <path
       id="SVGID-2"
       data-name="SVGID"
       class="cls-1"
       d="m 67.93793,512.1212 c 0,245.28622 198.83963,444.12116 444.12116,444.12116 245.28153,0 444.12591,-198.83494 444.12591,-444.12116 C 956.185,266.83966 757.34063,68 512.05909,68 266.77755,68 67.93793,266.83966 67.93793,512.1212"
       transform="translate(-18,-20)"
       shape-rendering="geometricPrecision"
       style="fill:url(#radialGradient902)" />
    <g
       class="cls-5"
       clip-path="url(#clip-path)"
       id="g54">
      <rect
         class="cls-6"
         x="49.937859"
         y="48"
         width="888.24707"
         height="888.24237"
         shape-rendering="geometricPrecision"
         id="rect52"
         style="fill:url(#radial-gradient-5)" />
    </g>
    <g
       class="cls-7"
       clip-path="url(#clip-path-2)"
       id="g58">
      <rect
         class="cls-8"
         x="53.60302"
         y="51.665138"
         width="880.91675"
         height="880.91211"
         shape-rendering="geometricPrecision"
         id="rect56"
         style="fill:url(#radial-gradient-6)" />
    </g>
    <path
       class="cls-9"
       d="M 684.907,370.50177 A 199.24212,199.24212 0 0 1 407.6664,440.95782 202.74787,202.74787 0 0 1 362.753,403.18446 198.9214,198.9214 0 0 1 312.85481,262.05133 c 0.28387,-5.78965 0.76859,-11.56257 1.52683,-17.30975 0.74726,-5.66395 1.7459,-11.30258 2.97756,-16.87354 q 1.89659,-8.57846 4.54716,-16.96232 2.572,-8.15982 5.86352,-16.07336 c 2.27456,-5.48511 4.8105,-10.85411 7.54648,-16.122 2.88124,-5.54761 6.07307,-10.94466 9.4812,-16.1843 q 4.7149,-7.24866 10.04419,-14.06235 c 3.85433,-4.95083 7.95005,-9.72719 12.27081,-14.27641 q 6.54174,-6.88764 13.66916,-13.16194 c 4.83847,-4.26274 9.91241,-8.2498 15.13962,-12.02191 q 4.04222,-2.917 8.23639,-5.61188 a 244.394,244.394 0 0 0 -109.08168,323.486 q 0.82056,1.704 1.66751,3.39519 0.38468,0.7681 0.77476,1.53348 a 4.60036,4.60036 0 0 0 0.46987,0.91713 c 0.32364,0.35883 0.40473,0.29867 0.89987,0.28969 2.578,-0.0468 5.15806,-0.0347 7.73585,0.021 q 7.14438,0.15426 14.26584,0.8147 a 199.577,199.577 0 0 1 178.16234,166.36656 201.32943,201.32943 0 0 1 0.64133,60.16627 A 198.7484,198.7484 0 0 1 453.532,762.237 202.19273,202.19273 0 0 1 403.75531,804.02111 199.86222,199.86222 0 0 1 279.6049,830.51543 203.06671,203.06671 0 0 1 256.40238,826.48549 c -4.95445,-1.16337 -9.85994,-2.531 -14.71085,-4.07118 a 242.60378,242.60378 0 0 0 68.54706,18.97282 247.03638,247.03638 0 0 0 66.4102,-0.79809 243.52975,243.52975 0 0 0 108.66832,-44.88732 246.04226,246.04226 0 0 0 59.73343,-63.07421 q 1.04115,-1.58711 2.05761,-3.19021 c 0.263,-0.41478 0.85074,-1.06891 0.77441,-1.50894 a 8.49447,8.49447 0 0 0 -1.05057,-1.9447 q -2.00279,-3.75737 -3.8436,-7.59815 -3.698,-7.71623 -6.7219,-15.73206 a 198.01918,198.01918 0 0 1 -9.34078,-33.367 200.87418,200.87418 0 0 1 0.041,-73.98045 A 197.88137,197.88137 0 0 1 548.324,536.05063 199.08091,199.08091 0 0 1 721.41371,432.9917 q 7.33682,-0.0509 14.66347,0.42449 7.066,0.47 14.088,1.41786 6.952,0.95079 13.82736,2.39389 6.73038,1.4208 13.355,3.29017 6.48924,1.84088 12.8432,4.11821 6.44067,2.31259 12.7085,5.06391 6.3891,2.79015 12.56139,6.04592 6.16559,3.24277 12.09984,6.9069 c 3.71356,2.2975 7.36439,4.705 10.91293,7.25121 q 5.48994,3.93921 10.72616,8.20808 c 3.603,2.93077 7.0801,6.01877 10.46193,9.202 q 5.40071,5.08362 10.4077,10.563 4.9978,5.44733 9.57009,11.27034 c 3.4,4.31833 6.6383,8.77214 9.66035,13.36317 3.10448,4.71627 6.03931,9.55546 8.74828,14.51488 a 200.21456,200.21456 0 0 1 10.06824,21.36634 206.9737,206.9737 0 0 1 7.97272,24.37127 243.74067,243.74067 0 0 0 -51.67776,-120.94126 245.663,245.663 0 0 0 -75.01182,-62.48165 242.85789,242.85789 0 0 0 -95.94806,-28.3044 q -4.267,-0.3414 -8.54423,-0.53426 z"
       transform="translate(-18,-20)"
       shape-rendering="geometricPrecision"
       id="path60"
       style="fill:url(#radial-gradient-7)" />
  </g>
</svg>
