<?xml version="1.0" encoding="UTF-8" standalone="no"?>
<svg
   xmlns:dc="http://purl.org/dc/elements/1.1/"
   xmlns:cc="http://creativecommons.org/ns#"
   xmlns:rdf="http://www.w3.org/1999/02/22-rdf-syntax-ns#"
   xmlns:svg="http://www.w3.org/2000/svg"
   xmlns="http://www.w3.org/2000/svg"
   xmlns:sodipodi="http://sodipodi.sourceforge.net/DTD/sodipodi-0.dtd"
   xmlns:inkscape="http://www.inkscape.org/namespaces/inkscape"
   version="1.1"
   id="Capa_1"
   x="0px"
   y="0px"
   width="200"
   height="200"
   viewBox="0 0 200 200"
   xml:space="preserve"
   sodipodi:docname="right-arrow.svg"
   inkscape:version="1.0.2 (e86c870879, 2021-01-15)"><metadata
   id="metadata41"><rdf:RDF><cc:Work
       rdf:about=""><dc:format>image/svg+xml</dc:format><dc:type
         rdf:resource="http://purl.org/dc/dcmitype/StillImage" /><dc:title></dc:title></cc:Work></rdf:RDF></metadata><defs
   id="defs39">
	
</defs><sodipodi:namedview
   pagecolor="#ffffff"
   bordercolor="#666666"
   borderopacity="1"
   objecttolerance="10"
   gridtolerance="10"
   guidetolerance="10"
   inkscape:pageopacity="0"
   inkscape:pageshadow="2"
   inkscape:window-width="2210"
   inkscape:window-height="1855"
   id="namedview37"
   showgrid="false"
   inkscape:zoom="6.3"
   inkscape:cx="91.051009"
   inkscape:cy="106.75184"
   inkscape:window-x="4720"
   inkscape:window-y="133"
   inkscape:window-maximized="0"
   inkscape:current-layer="Capa_1"
   inkscape:document-rotation="0"
   fit-margin-top="0"
   fit-margin-left="0"
   fit-margin-right="0"
   fit-margin-bottom="0" />
<path
   d="m 164,100 c 0,-35.2864 -28.7136,-64 -64,-64 -35.2864,0 -64,28.7136 -64,64 0,35.2864 28.7136,64 64,64 35.2864,0 64,-28.7136 64,-64 z m -63.2064,25.6576 c -1.6992,-1.4432 -2.576,-3.5008 -2.576,-5.5616 0,-1.6672 0.5728,-3.3504 1.7376,-4.7264 l 6.8512,-8.0672 H 77.4112 c -4.032,0 -7.296,-3.2672 -7.296,-7.2992 0,-4.032 3.2672,-7.2992 7.296,-7.2992 h 29.3952 l -6.8512,-8.0672 c -2.6112,-3.072 -2.2336,-7.68 0.8384,-10.2912 3.0752,-2.6112 7.68,-2.2336 10.2912,0.8384 l 17.0656,20.0928 c 2.3136,2.7264 2.3136,6.7264 0,9.456 l -17.0656,20.0896 c -2.6112,3.0688 -7.216,3.4464 -10.2912,0.8352 z"
   id="path2"
   style="fill:#aad400;stroke-width:3.2" />
<g
   id="g6"
   transform="rotate(90,0,44)">
</g>
<g
   id="g8"
   transform="rotate(90,0,44)">
</g>
<g
   id="g10"
   transform="rotate(90,0,44)">
</g>
<g
   id="g12"
   transform="rotate(90,0,44)">
</g>
<g
   id="g14"
   transform="rotate(90,0,44)">
</g>
<g
   id="g16"
   transform="rotate(90,0,44)">
</g>
<g
   id="g18"
   transform="rotate(90,0,44)">
</g>
<g
   id="g20"
   transform="rotate(90,0,44)">
</g>
<g
   id="g22"
   transform="rotate(90,0,44)">
</g>
<g
   id="g24"
   transform="rotate(90,0,44)">
</g>
<g
   id="g26"
   transform="rotate(90,0,44)">
</g>
<g
   id="g28"
   transform="rotate(90,0,44)">
</g>
<g
   id="g30"
   transform="rotate(90,0,44)">
</g>
<g
   id="g32"
   transform="rotate(90,0,44)">
</g>
<g
   id="g34"
   transform="rotate(90,0,44)">
</g>
</svg>
