<?xml version="1.0" encoding="UTF-8" standalone="no"?>
<svg
   xmlns:dc="http://purl.org/dc/elements/1.1/"
   xmlns:cc="http://creativecommons.org/ns#"
   xmlns:rdf="http://www.w3.org/1999/02/22-rdf-syntax-ns#"
   xmlns:svg="http://www.w3.org/2000/svg"
   xmlns="http://www.w3.org/2000/svg"
   xmlns:xlink="http://www.w3.org/1999/xlink"
   xmlns:sodipodi="http://sodipodi.sourceforge.net/DTD/sodipodi-0.dtd"
   xmlns:inkscape="http://www.inkscape.org/namespaces/inkscape"
   width="64mm"
   height="64mm"
   viewBox="0 0 64 64"
   version="1.1"
   id="svg15389"
   inkscape:version="1.0.2 (e86c870879, 2021-01-15)"
   sodipodi:docname="transition_unused.svg">
  <defs
     id="defs15383">
    <style
       id="style998">.cls-1{fill:url(#radial-gradient);}.cls-2{fill:none;}.cls-3{fill:url(#radial-gradient-2);}.cls-4{fill:url(#radial-gradient-3);}.cls-5{clip-path:url(#clip-path);}.cls-6{fill:url(#radial-gradient-5);}.cls-7{clip-path:url(#clip-path-2);}.cls-8{fill:url(#radial-gradient-6);}.cls-9{fill:url(#radial-gradient-7);}</style>
    <radialGradient
       id="radial-gradient"
       cx="512.06144"
       cy="512.12118"
       r="444.12235"
       gradientUnits="userSpaceOnUse">
      <stop
         offset="0.99"
         stop-opacity="0.5"
         id="stop1000" />
      <stop
         offset="1"
         stop-opacity="0"
         id="stop1002" />
    </radialGradient>
    <radialGradient
       id="radial-gradient-2"
       cx="514.5"
       cy="516.5"
       r="496.5"
       gradientUnits="userSpaceOnUse"
       gradientTransform="matrix(0.04572,0,0,0.04572,-890.99383,-116.13559)">
      <stop
         offset="0.91341"
         id="stop1005" />
      <stop
         offset="1"
         stop-opacity="0"
         id="stop1007" />
    </radialGradient>
    <radialGradient
       id="radial-gradient-3"
       cx="512.05911"
       cy="512.1212"
       r="486.27268"
       gradientUnits="userSpaceOnUse"
       gradientTransform="matrix(0.04572,0,0,0.04572,-890.99383,-116.13559)">
      <stop
         offset="0.99"
         stop-color="#fff"
         id="stop1010" />
      <stop
         offset="0.99505"
         stop-color="#fdfdfd"
         id="stop1012" />
      <stop
         offset="0.99687"
         stop-color="#f6f6f6"
         id="stop1014" />
      <stop
         offset="0.99817"
         stop-color="#ebebeb"
         id="stop1016" />
      <stop
         offset="0.99921"
         stop-color="#dadada"
         id="stop1018" />
      <stop
         offset="1"
         stop-color="#c7c7c7"
         id="stop1020" />
    </radialGradient>
    <clipPath
       id="clip-path"
       transform="translate(-18 -20)">
      <path
         id="SVGID"
         class="cls-1"
         d="M67.93793,512.1212c0,245.28622,198.83963,444.12116,444.12116,444.12116S956.185,757.40742,956.185,512.1212C956.185,266.83966,757.34063,68,512.05909,68S67.93793,266.83966,67.93793,512.1212" />
    </clipPath>
    <radialGradient
       id="radial-gradient-5"
       cx="494.0614"
       cy="492.1212"
       r="444.12237"
       xlink:href="#radial-gradient"
       gradientTransform="matrix(0.04572,0,0,0.04572,-890.17087,-115.22119)" />
    <clipPath
       id="clip-path-2"
       transform="translate(-18 -20)">
      <path
         class="cls-2"
         d="M71.60309,512.1212c0,243.262,197.19869,440.456,440.456,440.456s440.46067-197.194,440.46067-440.456c0-243.25733-197.20334-440.45606-440.46067-440.45606S71.60309,268.86387,71.60309,512.1212"
         id="path1026" />
    </clipPath>
    <radialGradient
       id="radial-gradient-6"
       cx="5.29522"
       cy="1029.31443"
       r="4.65333"
       gradientTransform="matrix(4.3275937,0,0,-4.3275937,-890.49796,4361.7333)"
       gradientUnits="userSpaceOnUse">
      <stop
         offset="0"
         id="stop1029" />
      <stop
         offset="1"
         stop-color="#322f32"
         id="stop1031" />
    </radialGradient>
    <radialGradient
       id="radial-gradient-7"
       cx="578.89023"
       cy="473.31944"
       r="353.94182"
       gradientTransform="matrix(0.04572,0,0,0.05015758,-890.99383,-118.23605)"
       gradientUnits="userSpaceOnUse">
      <stop
         offset="0"
         stop-color="#c2c0c2"
         id="stop1034" />
      <stop
         offset="1"
         stop-color="#ebebeb"
         id="stop1036" />
    </radialGradient>
  </defs>
  <sodipodi:namedview
     id="base"
     pagecolor="#ffffff"
     bordercolor="#666666"
     borderopacity="1.0"
     inkscape:pageopacity="0.0"
     inkscape:pageshadow="2"
     inkscape:zoom="2.0302115"
     inkscape:cx="109.51468"
     inkscape:cy="68.71263"
     inkscape:document-units="mm"
     inkscape:current-layer="layer1"
     inkscape:document-rotation="0"
     showgrid="false"
     fit-margin-top="0"
     fit-margin-left="0"
     fit-margin-right="0"
     fit-margin-bottom="0"
     inkscape:window-width="1831"
     inkscape:window-height="1236"
     inkscape:window-x="4774"
     inkscape:window-y="237"
     inkscape:window-maximized="0" />
  <metadata
     id="metadata15386">
    <rdf:RDF>
      <cc:Work
         rdf:about="">
        <dc:format>image/svg+xml</dc:format>
        <dc:type
           rdf:resource="http://purl.org/dc/dcmitype/StillImage" />
        <dc:title />
      </cc:Work>
    </rdf:RDF>
  </metadata>
  <g
     inkscape:label="Layer 1"
     inkscape:groupmode="layer"
     id="layer1"
     transform="translate(899.83331,125.7381)">
    <rect
       style="fill:#796d3d;fill-opacity:1;stroke:none;stroke-width:0.169599"
       id="rect971"
       width="64"
       height="64"
       x="-899.83331"
       y="-125.7381"
       ry="16.034723" />
    <g
       id="g1112"
       transform="translate(-0.36242299,-1.2168881)">
      <path
         class="cls-3"
         d="m -867.47089,-115.22119 c 12.5369,0 22.69998,10.16308 22.69998,22.69998 0,12.536903 -10.16308,22.69998 -22.69998,22.69998 -12.5369,0 -22.69998,-10.163073 -22.69998,-22.69998 0,-12.53691 10.16307,-22.69998 22.69998,-22.69998"
         shape-rendering="geometricPrecision"
         id="path1043"
         style="fill:url(#radial-gradient-2);stroke-width:0.04572" />
      <path
         class="cls-9"
         d="m -859.67988,-99.196249 a 9.1093497,9.1093497 0 0 1 -12.67544,3.221251 9.2696326,9.2696326 0 0 1 -2.05344,-1.726998 9.0946864,9.0946864 0 0 1 -2.28135,-6.452604 c 0.013,-0.26471 0.0351,-0.52864 0.0698,-0.7914 0.0342,-0.25896 0.0798,-0.51676 0.13613,-0.77146 q 0.0867,-0.39221 0.2079,-0.77552 0.11759,-0.37307 0.26808,-0.73487 c 0.10399,-0.25078 0.21993,-0.49625 0.34502,-0.7371 0.13173,-0.25364 0.27766,-0.50039 0.43348,-0.73995 q 0.21557,-0.33141 0.45922,-0.64293 c 0.17622,-0.22635 0.36348,-0.44473 0.56103,-0.65272 q 0.29908,-0.3149 0.62495,-0.60176 c 0.22122,-0.19489 0.4532,-0.37718 0.69218,-0.54964 q 0.18481,-0.13337 0.37657,-0.25658 a 11.173694,11.173694 0 0 0 -4.98721,14.789783 q 0.0375,0.07791 0.0762,0.155228 0.0176,0.03512 0.0354,0.07011 a 0.21032846,0.21032846 0 0 0 0.0215,0.04193 c 0.0148,0.01641 0.0185,0.01366 0.0411,0.01324 0.11787,-0.0021 0.23583,-0.0016 0.35369,9.6e-4 q 0.32664,0.0071 0.65223,0.03725 a 9.1246604,9.1246604 0 0 1 8.14558,7.606279 9.2047815,9.2047815 0 0 1 0.0293,2.750802 9.0867768,9.0867768 0 0 1 -2.1105,4.65683 9.2442516,9.2442516 0 0 1 -2.27579,1.910369 9.1377007,9.1377007 0 0 1 -5.67615,1.21132 9.28421,9.28421 0 0 1 -1.06082,-0.184248 c -0.22652,-0.05319 -0.4508,-0.115718 -0.67258,-0.186135 a 11.091845,11.091845 0 0 0 3.13397,0.867438 11.294503,11.294503 0 0 0 3.03627,-0.03649 11.13418,11.13418 0 0 0 4.96832,-2.052248 11.249052,11.249052 0 0 0 2.73101,-2.883753 q 0.0476,-0.07256 0.0941,-0.145857 c 0.012,-0.01896 0.0389,-0.04887 0.0354,-0.06899 a 0.38836717,0.38836717 0 0 0 -0.048,-0.08891 q -0.0916,-0.171787 -0.17573,-0.347387 -0.16907,-0.352787 -0.30733,-0.71927 a 9.0534369,9.0534369 0 0 1 -0.42706,-1.52554 9.1839675,9.1839675 0 0 1 0.002,-3.382386 9.0471362,9.0471362 0 0 1 0.97645,-2.709155 9.1019792,9.1019792 0 0 1 7.91366,-4.711854 q 0.33544,-0.0023 0.67042,0.01941 0.32306,0.02149 0.6441,0.06482 0.31785,0.04347 0.63219,0.109448 0.30771,0.06496 0.61059,0.150427 0.29669,0.08416 0.58719,0.188285 0.29447,0.105731 0.58103,0.231522 0.29211,0.127565 0.57431,0.276419 0.28189,0.148259 0.5532,0.315783 c 0.16979,0.105042 0.3367,0.215113 0.49894,0.331526 q 0.251,0.1801 0.4904,0.375273 c 0.16473,0.133995 0.32371,0.275178 0.47832,0.420716 q 0.24692,0.232423 0.47584,0.48294 0.2285,0.249052 0.43755,0.51528 c 0.15545,0.197434 0.3035,0.401062 0.44167,0.610964 0.14194,0.215628 0.27612,0.436876 0.39997,0.66362 a 9.1538097,9.1538097 0 0 1 0.46032,0.976869 9.4628376,9.4628376 0 0 1 0.36451,1.114255 11.143823,11.143823 0 0 0 -2.3627,-5.529435 11.231712,11.231712 0 0 0 -3.42954,-2.856661 11.103463,11.103463 0 0 0 -4.38675,-1.294077 q -0.19509,-0.01561 -0.39064,-0.02443 z"
         shape-rendering="geometricPrecision"
         id="path1056"
         style="fill:url(#radial-gradient-7);stroke-width:0.04572" />
    </g>
  </g>
</svg>
